<?xml version="1.0" encoding="UTF-8"?>
<svg id="Layer_1" xmlns="http://www.w3.org/2000/svg" version="1.1" viewBox="0 0 36 36">
  <!-- Generator: Adobe Illustrator 29.1.0, SVG Export Plug-In . SVG Version: 2.1.0 Build 142)  -->
  <defs>
    <style>
      .st0 {
        fill: #fff;
      }

      .st1 {
        fill: #d5e4be;
      }
    </style>
  </defs>
  <circle class="st1" cx="18" cy="18" r="17.7"/>
  <path class="st0" d="M18,6.4l.5.2c.6.2,1.3,1,1.3,1.7v8h2.4c.6-1.2,1.6-2.1,2.8-2.5s1-.3,1.3-.2.4.3.4.5v2.1h0s1.1,0,1.1,0c.7,0,1.6.7,1.7,1.4v.4c.1,0,.1,9.9.1,9.9l-.2.6c-.2.5-.6.9-1.2,1.1h-.4c0,.1-9.9.1-9.9.1h-.4c-.7-.3-1.4-1.2-1.4-1.9v-8h-2.4c-.6,1.2-1.8,2.2-3.1,2.6s-.7.2-1,0-.4-.3-.4-.5v-2.1h0s-1.1,0-1.1,0c-.7,0-1.5-.7-1.7-1.3l-.2-.5V7.7c.3-.5.7-.9,1.2-1.2l.6-.2h9.9ZM10.7,21c.1,0,.3,0,.4-.2.6-.3,1.1-.8,1.4-1.4s.3-.9.9-1h4.4c.3,0,.6-.3.6-.7v-9.5c0-.3-.3-.6-.6-.6h-9.5c-.3,0-.6.3-.6.6v9.6c0,.3.3.5.6.6.5,0,1.3,0,1.8,0s.6.3.6.6v1.9ZM25.3,15.2c-.2,0-.3.1-.4.2-.6.3-1.1.8-1.4,1.4s-.3,1-.8,1h-2.9v.4c0,.3-.3.9-.5,1.1s-.9.7-1.3.7h-.4v8s0,.2,0,.2c.1.2.3.3.6.4h9.5c.3,0,.6-.3.6-.6v-9.5c0-.3-.3-.5-.6-.6-.5,0-1.3,0-1.8,0s-.6-.3-.6-.6v-1.9Z"/>
  <path class="st0" d="M23.6,6.4c0,0,.2,0,.2.1.3.2.4.7.1,1s-.3.2-.2.3c3,.1,5.5,2.5,5.8,5.5s0,.3,0,.5v.2c0,0,0,.2,0,.3-.2.5-1,.5-1.2,0s0-.6-.1-.9c-.2-2.3-2.2-4.1-4.5-4.2,0,0,.2.2.2.2.5.7-.3,1.5-1,1s-.9-1-1.4-1.4c-.2-.2-.2-.6,0-.9s1.3-1.4,1.5-1.5.2,0,.2-.1h.3Z"/>
  <rect class="st1" x="8.5" y="8.4" width="8.9" height="8.9"/>
  <path class="st0" d="M10.4,16.7c-.5-.4-.8-.9-.8-1.5,0-1,.7-1.9,2.2-2.5-.5,0-.9-.2-1.2-.5-.3-.3-.5-.7-.5-1.2,0-.8.3-1.4.8-1.8.6-.5,1.4-.7,2.4-.7s.8,0,1.2.1l-.3,1.5c-.3,0-.6-.1-1-.1s-.7,0-.9.3c-.2.2-.3.4-.3.7,0,.4.2.7.6.9.4.1.8.1,1.2,0l.7-.3.6,1.3-2.2,1.1c-.9.4-1.4.8-1.4,1.2,0,.6.6.8,1.7.8s1.2,0,1.8-.1v1.4c-.6.1-1.3.2-2,.2-1.2,0-2.1-.2-2.7-.6Z"/>
  <path class="st0" d="M6.3,22c0,0,0-.1.1-.2.3-.5,1-.4,1.2,0s0,.7.1,1c.3,2.2,2.2,4,4.5,4.1,0,0-.2-.2-.2-.3-.5-.6.2-1.4.9-1,.5.5,1.1,1,1.5,1.5s.2.6,0,.9c-.5.4-1,1.1-1.5,1.5s-.1,0-.2.1-.1,0-.2,0h-.1c-.2,0-.3,0-.4-.2-.2-.3-.2-.6,0-.9s.3-.3.2-.3c-2.9-.1-5.4-2.4-5.8-5.3s0-.3,0-.4v-.6Z"/>
  <path class="st0" d="M24.6,25.1h-3.3s0,0,0,0c-.2.3-.3.7-.5,1-.4.7-1.6.2-1.2-.7l2.7-5.5c.2-.5.9-.5,1.2,0l2.8,5.6c.2.8-.8,1.2-1.2.6s-.3-.8-.5-1.1ZM23.9,23.7l-.9-1.9-.9,1.8h0s1.8,0,1.8,0Z"/>
  <path class="st0" d="M13.7,10.8s0,0,0,0c.6,0,1.9-.1,2.3,0s.5.8.2,1.1-.8.2-1.2.2c-.1.9-.4,1.8-1,2.6,0,0,0,0,0,0,.3.2.9.3,1.2.4s1,0,1.1.6c0,.9-.9.8-1.5.7s-1.4-.4-2-.8c0,0-.4.2-.5.3-.6.3-1.6.6-2.3.5s-.8-1.2,0-1.3,1,0,1.6-.3.2,0,.2-.1c-.6-.7-.9-1.6-1-2.6,0,0-.7,0-.8,0-.7,0-.8-1.3.1-1.4s1.4,0,2,0,0,0,0,0v-.5s0-.1,0-.1c.2-.5.9-.6,1.2,0s0,.2,0,.2v.5ZM12.4,12.2h0c0,.6.2,1.1.5,1.5s.1.2.2.2c.3-.4.5-.8.6-1.2s0-.4,0-.4,0,0,0,0c-.2,0-.4,0-.6,0s0,0-.1,0c-.2,0-.3,0-.5,0Z"/>
  <rect class="st1" x="8.1" y="8.4" width="9.9" height="9.6"/>
  <path class="st0" d="M10.4,16.7c-.5-.4-.8-.9-.8-1.5,0-1,.7-1.9,2.2-2.5-.5,0-.9-.2-1.2-.5-.3-.3-.5-.7-.5-1.2,0-.8.3-1.4.8-1.8.6-.5,1.4-.7,2.4-.7s.8,0,1.2.1l-.3,1.5c-.3,0-.6-.1-1-.1s-.7,0-.9.3c-.2.2-.3.4-.3.7,0,.4.2.7.6.9.4.1.8.1,1.2,0l.7-.3.6,1.3-2.2,1.1c-.9.4-1.4.8-1.4,1.2,0,.6.6.8,1.7.8s1.2,0,1.8-.1v1.4c-.6.1-1.3.2-2,.2-1.2,0-2.1-.2-2.7-.6Z"/>
</svg>