<?xml version="1.0" encoding="UTF-8"?>
<svg id="Layer_1" xmlns="http://www.w3.org/2000/svg" version="1.1" viewBox="0 0 36 36">
  <!-- Generator: Adobe Illustrator 29.1.0, SVG Export Plug-In . SVG Version: 2.1.0 Build 142)  -->
  <defs>
    <style>
      .st0 {
        fill: #fff;
      }

      .st1 {
        fill: #d5e4be;
      }
    </style>
  </defs>
  <circle class="st1" cx="18" cy="18" r="17.7"/>
  <g>
    <path class="st0" d="M20.6,31.1h-5.2c0,0-.2,0-.3,0-2,0-4,0-5.8-1-2.5-1.4-3.4-3.9-3.5-6.6s0-.9,0-1.4c0-2.1,0-4.2,0-6.4s.4-5.6,2.7-7.4,4.2-1.5,6.7-1.6,3.7,0,5.5,0,4.3,0,6.4,1.3,3.1,4.9,3.1,8c-.1,1.9.2,4,0,5.8s-1.8,1.3-2,.1,0-.6,0-.9c0-2.1,0-4.3,0-6.4-.2-3.9-1.8-5.8-5.7-6s-6.1-.2-9,0c-4,.2-5.6,2-5.8,6s-.1,5.7,0,8.5,1.4,5.6,4.9,5.9,5,.1,7.4,0,5.7.2,7.3-2.4.4-.9.8-1.1c.7-.3,1.5.3,1.4,1.1s-1.1,2-1.7,2.4c-2.1,1.9-4.6,1.9-7.3,1.9Z"/>
    <path class="st0" d="M17.4,12.9c6-.5,8.9,7,4.2,10.7s-10,0-9.6-5.2,2.6-5.2,5.4-5.5ZM17.6,14.8c-3.6.3-5,4.8-2.2,7.2,2,1.6,5,1,6.2-1.2s-.8-6.2-3.9-5.9Z"/>
    <path class="st0" d="M24.3,11c2-.3,2.3,2.6.5,2.8s-2.2-2.6-.5-2.8Z"/>
  </g>
</svg>