<?xml version="1.0" encoding="UTF-8"?>
<svg id="Layer_1" xmlns="http://www.w3.org/2000/svg" version="1.1" viewBox="0 0 36 36">
  <!-- Generator: Adobe Illustrator 29.1.0, SVG Export Plug-In . SVG Version: 2.1.0 Build 142)  -->
  <defs>
    <style>
      .st0 {
        fill: #fff;
      }

      .st1 {
        fill: #d5e4be;
      }
    </style>
  </defs>
  <circle class="st1" cx="18" cy="18" r="17.7"/>
  <path class="st0" d="M18.7,5.7h1c5.6.8,10.3,5.8,10.5,11.5s0,.1,0,0v1.4c0,0,0,0,0,0,0,.3,0,.7,0,1-.2,1.1-1.8.9-1.7-.3s0-.4,0-.6h-1.5c-.3,0-.6-.2-.7-.4-.3-.6,0-1.3.7-1.3h1.5c-.2-2.2-1.1-4.3-2.5-5.9s-.2-.3-.3-.3l-1.8.9c0,0,.2.5.2.6.3,1,.8,2.6.8,3.6s-1.5,1.3-1.7.2,0-.6-.1-.8c-.2-1-.4-2-.8-2.9,0,0-.8.2-.9.2-.8.2-1.6.3-2.5.3v5.2c0,.4-.4.9-.8.9h-5.4c0,1.4.3,2.8.8,4.1s.2.7.3.7,0,0,0,0c.8-.2,1.7-.4,2.5-.5s.7,0,1,0c1,0,1.3,1.6,0,1.8s-1.4.1-2.2.3-.6.1-.6.2c.5.9,1.1,1.8,1.7,2.6s.4.5.5.5.1,0,.2,0c.3,0,.7,0,1.1,0,.8,0,1,1,.5,1.5l-.4.2h-.7c0,0,0,0,0,0-5.7-.4-10.5-4.8-11.3-10.5v-1c0-.5-.1-.9-.1-1.4.3-6.1,5.4-11.2,11.5-11.6h1.4ZM17.1,11.1v-3.5h0s-.4,0-.4,0c-.8.9-1.6,2-2.1,3.1,0,0,0,0,0,0,.2,0,.8.2,1.1.2.5,0,1,.1,1.5.2ZM18.9,11.1c.6,0,1.2-.1,1.8-.2s.6-.1.7-.2,0,0,0,0c-.5-.9-1-1.8-1.7-2.5s-.4-.5-.5-.5-.3,0-.4,0,0,0,0,0v3.5ZM13.8,8.4c-.8.3-1.4.7-2.1,1.2h0c0,.1.4.3.5.3s.5.2.6.2,0,0,0,0l1-1.7ZM24.3,9.5c-.7-.4-1.4-.9-2.1-1.2l1,1.7s0,0,.1,0c.2,0,.6-.2.8-.3s.3-.1.2-.2ZM7.5,17.1h3.3c0-.1,0-.3,0-.5.1-1.4.4-3,.9-4.3s.2-.5.2-.6l-1.8-.8c0,0-.4.3-.4.4-1.4,1.6-2.2,3.7-2.4,5.8h0ZM12.7,17.1h4.4v-4.3c-1.1,0-2.2-.2-3.3-.5,0,0,0,0,0,0,0,.1-.2.4-.2.6-.5,1.3-.7,2.8-.8,4.1h0ZM7.5,18.9h0c.2,2.1,1,4.2,2.4,5.8s.4.4.4.4l1.8-.9c-.2-.4-.3-.9-.5-1.3-.3-1.1-.6-2.4-.7-3.6s0-.4,0-.5h-3.3ZM13.8,27.6l-1-1.7s0,0,0,0c0,0-.5.2-.6.2s-.5.2-.5.3c0,0,.1.1.2.2.3.2.6.4.8.5s1.1.6,1.1.6Z"/>
  <path class="st0" d="M24.8,30.3c0,0,0,0,0,0-.5-.1-.8-.4-1.1-.8s-.5-1.2-.8-1.7h0c-.5.7-1.1,1.2-2,.9-1.4-.5-1-2-.9-3.1.1-1.7.3-3.4.4-5s0-1.1.3-1.6c.4-.8,1.4-1,2.1-.6,2,1.5,4.2,2.8,6.2,4.3s.6.5.7,1c.2.8-.2,1.6-1,1.9s-.7,0-1.1,0c0,0,0,0,0,0,.3,1.1,1.5,2.2.6,3.3s-1.5.9-2,1.1-.4.2-.6.2,0,0,0,0h-.5ZM27.4,23.7h0c0,0-5.2-3.7-5.2-3.7h0s-.6,6.5-.6,6.5c0,0,0,0,.1,0,.4-.3.8-1.1,1.3-1.2s.8.1,1,.5l1.2,2.6h0c0,0,1.4-.6,1.4-.6l-1.3-2.8c-.2-.5.1-1.1.7-1.2h1.4Z"/>
</svg>