<?xml version="1.0" encoding="UTF-8"?>
<svg id="Layer_1" xmlns="http://www.w3.org/2000/svg" version="1.1" viewBox="0 0 36 36">
  <!-- Generator: Adobe Illustrator 29.1.0, SVG Export Plug-In . SVG Version: 2.1.0 Build 142)  -->
  <defs>
    <style>
      .st0 {
        fill: #fff;
      }

      .st1 {
        fill: #d5e4be;
      }
    </style>
  </defs>
  <circle class="st1" cx="18" cy="18" r="17.7"/>
  <g>
    <path class="st0" d="M17.6,7.2c0,0,.2,0,.3,0,.9,0,1.8.2,2.7.5s.8.3,1.2.5c.8-.5,1.7-.8,2.6-.9h1c0-.1.5-.1.5-.1.2,0,.4,0,.6,0,.9,0,2.4.5,3.1,1.1s.1.7-.2.7-.6-.3-.7-.4c-2.1-1.1-4.9-.9-6.8.5s-2.5,4.9-.2,6.8.7.4.7.7-.1.9-.2,1.3,0,.1,0,.2c0,0,0,0,0,0,.4-.3.8-.7,1.2-.9s.2-.1.3-.1c.2,0,.6.1.8.2,2,.3,4.3-.2,5.7-1.8s1.5-3.4.5-5-.6-.6-.3-.9.5-.1.7,0c.5.5.9,1.4,1,2.1s0,.4.1.6v.8c0,0,0,.2,0,.3-.3,2-1.8,3.5-3.6,4.2,0,0,0,.5,0,.6.2,6.2-4.2,11.5-10.4,12.1s-.3,0-.5,0h-1.3c0,0-.2,0-.2,0-5.6-.4-10.2-4.9-10.7-10.5s0-.3,0-.4c0-.4,0-.9,0-1.3.1-1.6.6-3.3,1.4-4.8s.7-1.3.9-1.4.4,0,.5.1c.2.3-.1.6-.3.8-4.4,7,0,16,8.2,16.7,6.5.5,12.1-4.8,11.7-11.4,0,0,0-.3,0-.4-.3,0-.6.1-.9.2-.6.1-1.4.1-2,0s-.7-.1-1-.2l-1.8,1.4c-.5.2-.8-.2-.7-.7l.2-1.7c-.5-.4-1-.8-1.4-1.3-1.5-2-1.3-4.5.4-6.3s.4-.3.5-.5,0,0,0,0c-1.9-.8-4-1-6.1-.6s-3.8,1.3-5.4,2.7-.4.5-.6.5c-.3,0-.5-.2-.4-.5s.7-.8.9-.9c1.9-1.6,4.3-2.6,6.8-2.7h1.4Z"/>
    <path class="st0" d="M15.5,11.1c.9,0,1.6.2,1.8,1.1s0,.8,0,1.2c0,1,0,2.1-1,2.6s-.5.1-.6.2-.1.2-.2.3c-.5,1.1.2,3.2.9,4.2s.6.6.8.6c1.1-.3,1.7.1,2.4,1,1,1.3,2,2.9-.2,3.7s-4-.2-5.3-1.7c-2.1-2.3-3.5-6.9-2.5-9.9s1.9-3.2,3.8-3.3ZM15.6,11.9c-1.7.1-2.9,1.6-3.2,3.1-.6,2.7.6,6.7,2.5,8.7s2.9,2.1,4.6,1.4.8-.8.4-1.5-.9-1.5-1.4-1.6-.7,0-1.1,0c-.6,0-1.2-.7-1.5-1.2-.8-1.2-1.5-3.7-.7-4.9s.8-.4,1.2-.7.4-1.3.4-1.8,0-.9-.2-1.3-.6-.3-.9-.3Z"/>
    <path class="st0" d="M22.9,11.8c-.2-.2,0-.6.3-.7h5.4c.5,0,.5.7,0,.8h-5.5s-.1,0-.1-.1Z"/>
    <path class="st0" d="M23.1,13.2h5.5c.5.1.4.7,0,.8h-5.3c-.5,0-.6-.6-.1-.8Z"/>
  </g>
</svg>