<?xml version="1.0" encoding="UTF-8"?>
<svg id="Layer_1" xmlns="http://www.w3.org/2000/svg" version="1.1" viewBox="0 0 36 36">
  <!-- Generator: Adobe Illustrator 29.1.0, SVG Export Plug-In . SVG Version: 2.1.0 Build 142)  -->
  <defs>
    <style>
      .st0 {
        fill: #fff;
      }

      .st1 {
        fill: #d5e4be;
      }
    </style>
  </defs>
  <circle class="st1" cx="18" cy="18" r="17.7"/>
  <g>
    <path class="st0" d="M25.2,6.6c0,0,.1,0,.2.1s.1.2.1.3v16.3h1.8v-12.3h0s-.8,0-.8,0v-.9h1.4s.2.1.2.1c0,0,.1.2.1.3v13.2c0,.2-.1.4-.3.4H8.2c-.2,0-.3-.2-.3-.4,0-4.4,0-8.9,0-13.3,0-.1.2-.3.3-.3h1.4v.9h-.9v12.3h0s1.7,0,1.7,0V7s.1-.2.1-.3.1,0,.2-.1h14.3ZM24.6,7.5h-13.2v15.8h13.2V7.5Z"/>
    <path class="st0" d="M6.1,10.3c0,0,0,0,0,0,.2-.9,1-1.8,2-1.8h1.5v.8h0s-1.5,0-1.5,0c-.4,0-1.1.7-1.1,1.2v15.2c0,.6.6,1.1,1.2,1.2h19.5c.6,0,1.2-.5,1.2-1.2v-15.2c0-.4-.6-1.2-1.1-1.2h-1.6v-.9h1.5c1,0,1.8.9,2,1.8s0,.1,0,0v15.5c0,0,0,0,0,0-.1.8-.7,1.4-1.5,1.7s-.4.1-.4.1h-7.3c0,0,0,.3,0,.4,0,.6.2,1.2.4,1.7s.2.4.4.6h1s0,0,0,0c0,.2,0,.6,0,.8h-8.7c0-.2,0-.6,0-.8s0,0,0,0h1c.1-.2.3-.4.4-.6.2-.5.4-1.1.4-1.7s0-.4,0-.4h-7.3c-.2,0-.7-.2-.9-.3-.5-.3-.8-.8-1-1.5s0,0,0-.1v-15.5ZM15.7,30.4h4.5c-.4-.8-.6-1.7-.6-2.6h-.1c-1,0-2.1,0-3.1,0s-.2,0-.2,0c0,.9-.2,1.8-.6,2.6h0Z"/>
    <polygon class="st0" points="19.7 26 16.3 26 16.3 25.1 16.3 25.1 19.7 25.1 19.7 25.1 19.7 26"/>
    <path class="st0" d="M22.8,18.9h-9.6v-.8s0,0,0,0h9.6c0,0,0,0,0,0v.8Z"/>
    <rect class="st0" x="13.2" y="20.7" width="9.6" height=".9"/>
    <path class="st0" d="M17.8,9.3c1.5-.2,2.5,1.4,1.7,2.7s-2.5,1.1-3.1-.2.2-2.4,1.4-2.5ZM17.9,10.1c-1.1.1-1,1.9.3,1.8s.9-1.9-.3-1.8Z"/>
    <path class="st0" d="M15.4,15.6c.2-2.1,2.8-3.1,4.3-1.7s.9,1.2.9,1.7v.7h0s-.8,0-.8,0h0v-.6c0-.9-1.1-1.7-1.9-1.6s-1.6.8-1.6,1.6v.6h0s-.8,0-.8,0h0c0-.3,0-.5,0-.7Z"/>
  </g>
</svg>