<?xml version="1.0" encoding="UTF-8"?>
<svg id="Layer_1" xmlns="http://www.w3.org/2000/svg" version="1.1" viewBox="0 0 36 36">
  <!-- Generator: Adobe Illustrator 29.1.0, SVG Export Plug-In . SVG Version: 2.1.0 Build 142)  -->
  <defs>
    <style>
      .st0 {
        fill: #fff;
      }

      .st1 {
        fill: #d5e4be;
      }
    </style>
  </defs>
  <circle class="st1" cx="18" cy="18" r="17.7"/>
  <g>
    <path class="st0" d="M26.5,7.6c0,0,.1,0,.2,0,1.2.2,2.1,1.1,2.3,2.3s0,.1,0,.2v17c0,0,0,.1,0,.2-.2,1.2-1.1,2.1-2.3,2.3s-.1,0-.2,0H9.5c0,0-.1,0-.2,0-1.2-.2-2.1-1.1-2.3-2.3s0-.1,0-.2V10.2c0,0,0-.1,0-.2.2-1.2,1.1-2.1,2.3-2.3s.1,0,.2,0h17ZM27.6,9.1c-.3-.3-.8-.5-1.2-.6H9.7c-1,0-1.8.9-1.9,1.8v16.7c0,1,.9,1.8,1.9,1.9h16.7c1,0,1.8-.9,1.8-1.9V10.3c0-.5-.2-.9-.6-1.2Z"/>
    <path class="st0" d="M19.5,16.7s.2-.2.3-.2c.6-.5,1.2-.7,2-.8,2.4-.3,3.8,1.2,3.9,3.5v6.8c0,.1-.2.3-.3.3-1,0-2,0-3,0s-.4-.2-.5-.4v-5.9c-.3-1.4-2.1-1.1-2.4.2,0,1.9,0,3.8,0,5.7,0,.3-.2.4-.5.4-1,0-2.1,0-3.2,0-.2,0-.3-.2-.3-.4v-9.6c0-.2.2-.4.4-.4h3.4c0,0,.3.2.3.3v.5ZM18.6,25.5v-4.9c0-1.5,1.3-2.6,2.7-2.2s1.4,1,1.4,1.7v5.5h0s2,0,2,0h0c0-2,0-4.1,0-6s-.8-3.1-2.9-2.9-1.5.5-2.1,1.1-.5.9-1,.6-.2-.2-.2-.4v-1.1h0s-2.2,0-2.2,0c0,0,0,0,0,0v8.6s0,0,0,0h2.2Z"/>
    <path class="st0" d="M11.4,20c0,0,0,.2-.2.2-.3.2-.7,0-.7-.3v-3.6c0-.2.1-.4.4-.5h3.3c.2,0,.4.2.4.4v9.6c0,.3-.2.4-.5.4-1.1,0-2.1,0-3.2,0-.2,0-.4-.2-.4-.4,0-.7,0-1.5,0-2.3,0-.4.4-.6.7-.4s.1.2.1.2v2h0s2.2,0,2.2,0h0v-8.7h0s-2.2,0-2.2,0h0v3.3Z"/>
    <path class="st0" d="M12.2,11.1c1.7-.2,2.9,1.4,2.3,2.9s-3,1.9-3.9.3,0-3.1,1.6-3.2ZM12.4,11.9c-1,0-1.6,1.3-.9,2.2s1.8.6,2.2-.2-.3-2-1.3-1.9Z"/>
    <path class="st0" d="M20.2,9.7h3.5c.5,0,.6.7,0,.9h-3.6c-.5-.1-.5-.8,0-.9Z"/>
    <path class="st0" d="M18.1,9.7c.7-.1.7.9,0,.8s-.5-.8,0-.8Z"/>
    <path class="st0" d="M10.9,21.4c.2,0,.3,0,.4.2.2.4-.2.8-.6.6s-.2-.7.2-.8Z"/>
  </g>
</svg>